<?xml version="1.0" encoding="UTF-8"?>
<svg xmlns="http://www.w3.org/2000/svg" xmlns:xlink="http://www.w3.org/1999/xlink" width="30pt" height="30pt" viewBox="0 0 30 30" version="1.1">
<g id="surface151335">
<path style=" stroke:none;fill-rule:nonzero;fill:rgb(90.588235%,29.803922%,23.529412%);fill-opacity:1;" d="M 15 3 C 8.371094 3 3 8.371094 3 15 C 3 21.628906 8.371094 27 15 27 C 21.628906 27 27 21.628906 27 15 C 27 8.371094 21.628906 3 15 3 Z M 16.210938 8 L 16.011719 17 L 13.988281 17 L 13.789062 8 Z M 15.003906 22.1875 C 14.175781 22.1875 13.679688 21.746094 13.679688 21.007812 C 13.679688 20.253906 14.175781 19.8125 15.003906 19.8125 C 15.824219 19.8125 16.320312 20.253906 16.320312 21.007812 C 16.320312 21.746094 15.824219 22.1875 15.003906 22.1875 Z M 15.003906 22.1875 "/>
</g>
</svg>
